<svg xmlns="http://www.w3.org/2000/svg" width="800" height="800" viewBox="0 0 800 800" version="1.1">
	<path d="M 278.500 446.500 C 257.899 450.735, 248.054 462.643, 249.222 481.915 C 250.021 495.107, 255.938 504.431, 266.467 509.088 L 270.678 510.951 294.589 508.995 C 307.740 507.918, 321.650 507.029, 325.500 507.017 C 330.138 507.004, 333.673 506.407, 335.975 505.248 C 343.572 501.425, 348.814 488.251, 347.570 476.106 C 345.993 460.717, 338.197 452.097, 321.500 447.282 C 314.157 445.164, 287.368 444.677, 278.500 446.500 M 480.500 446.871 C 478.850 447.895, 476.552 449.806, 475.393 451.117 C 472.552 454.330, 439.076 501.639, 438.403 503.391 L 437.871 504.779 449.685 504.885 L 461.500 504.991 474 487.032 C 480.875 477.154, 486.762 469.056, 487.083 469.036 C 487.609 469.003, 505.998 495.373, 506.002 496.166 C 506.002 496.350, 499.580 496.366, 491.728 496.201 L 477.454 495.902 474.322 500.345 L 471.191 504.788 474.220 505.394 C 475.887 505.727, 480.112 506, 483.610 506 C 487.109 506, 499.667 506.701, 511.519 507.558 C 523.370 508.416, 534.564 508.978, 536.394 508.808 L 539.721 508.500 520.364 480.500 C 499.981 451.016, 497.134 447.382, 493.266 445.911 C 489.398 444.440, 483.727 444.866, 480.500 446.871 M 168.718 447.092 C 158.007 449.614, 152 456.622, 152 466.597 C 152 475.521, 156.817 481.951, 165.432 484.526 C 169.166 485.642, 176.041 486, 193.747 486 C 207.954 486, 217.891 486.406, 219.066 487.035 C 221.325 488.244, 221.703 493.171, 219.667 494.861 C 218.781 495.596, 209.003 496.057, 190.533 496.234 L 162.732 496.500 156.279 504.750 L 149.827 513 185.754 513 C 224.081 513, 227.475 512.646, 234.044 507.969 C 238.445 504.835, 240.951 498.845, 240.978 491.398 C 241.006 483.640, 238.440 479.472, 231.499 476 L 226.500 473.500 200.500 473 C 186.200 472.725, 173.938 472.136, 173.250 471.691 C 172.563 471.246, 172 469.547, 172 467.916 C 172 465.653, 172.607 464.720, 174.565 463.975 C 175.976 463.439, 188.238 462.981, 201.815 462.957 L 226.500 462.915 230.066 458.207 C 232.028 455.618, 234.894 451.813, 236.435 449.750 L 239.237 446 205.869 446.100 C 187.516 446.156, 170.798 446.602, 168.718 447.092 M 359 475.584 L 359 505.168 392.250 504.502 L 425.500 503.835 428.250 500.706 C 429.762 498.984, 431 497.221, 431 496.788 C 431 496.354, 419.300 496, 405 496 L 379 496 379 471 L 379 446 369 446 L 359 446 359 475.584 M 558.250 453.939 C 554.813 458.369, 552 462.220, 552 462.497 C 552 462.773, 565.837 463.001, 582.750 463.002 L 613.500 463.003 616.949 464.752 C 622.812 467.724, 622.893 474.453, 617.101 477.448 L 614.099 479 582.550 479 L 551 479 551 494.389 L 551 509.777 554.250 510.345 C 556.038 510.657, 560.763 511.215, 564.750 511.585 L 572 512.258 572 504.236 C 572 498.704, 572.388 496.086, 573.250 495.803 C 574.479 495.399, 575.957 495.398, 595.019 495.800 L 604.539 496 611.519 504.455 L 618.500 512.910 632.316 512.955 L 646.133 513 638.821 505.006 C 634.799 500.610, 630.269 496.096, 628.754 494.976 C 625.411 492.505, 625.282 491.348, 628.250 490.467 C 638.621 487.391, 644.983 475.148, 642.010 463.990 C 640.374 457.849, 632.976 450.719, 625.813 448.379 L 620.500 446.644 592.500 446.264 L 564.500 445.884 558.250 453.939 M 283.903 462.946 C 273.505 464.856, 269.782 469.179, 269.693 479.446 C 269.630 486.669, 271.340 490.644, 275.800 493.647 C 280.035 496.498, 286.685 497.292, 302.652 496.853 L 315.500 496.500 319.500 494.431 C 325.271 491.447, 327.180 487.224, 326.786 478.313 L 326.468 471.127 323.984 468.434 C 319.776 463.874, 315.660 462.773, 301.500 462.423 C 294.350 462.246, 286.431 462.482, 283.903 462.946" stroke="none" fill="#FFC107" fill-rule="evenodd"/>
</svg>