<svg xmlns="http://www.w3.org/2000/svg" width="856" height="616" viewBox="0 0 856 616" version="1.1">
	<path d="M 424 2.393 C 424 2.609, 424.698 3.054, 425.552 3.382 C 426.442 3.723, 426.843 3.555, 426.493 2.989 C 425.906 2.038, 424 1.583, 424 2.393 M 425.079 30.583 C 425.127 31.748, 425.364 31.985, 425.683 31.188 C 425.972 30.466, 425.936 29.603, 425.604 29.271 C 425.272 28.939, 425.036 29.529, 425.079 30.583 M 662.517 101.810 C 660.344 104.358, 660.100 104.954, 661.619 104.006 C 663.631 102.749, 666.473 99.064, 665.819 98.558 C 665.644 98.422, 664.158 99.885, 662.517 101.810 M 187.507 101.989 C 187.157 102.555, 187.558 102.723, 188.448 102.382 C 190.180 101.717, 190.497 101, 189.059 101 C 188.541 101, 187.843 101.445, 187.507 101.989 M 188.923 104.417 C 188.093 105.322, 188.590 107.667, 189.613 107.667 C 190.376 107.667, 190.779 107.446, 190.509 107.175 C 190.238 106.905, 190.456 106.155, 190.993 105.509 C 191.666 104.698, 191.508 104.333, 190.484 104.333 C 189.668 104.333, 188.966 104.371, 188.923 104.417 M 329 105.941 C 329 106.459, 329.445 107.157, 329.989 107.493 C 330.555 107.843, 330.723 107.442, 330.382 106.552 C 329.717 104.820, 329 104.503, 329 105.941 M 516.872 107.750 C 515.629 109.336, 515.664 109.371, 517.250 108.128 C 518.212 107.373, 519 106.585, 519 106.378 C 519 105.555, 518.179 106.084, 516.872 107.750 M 192.507 107.989 C 192.166 108.541, 192.537 108.731, 193.347 108.420 C 194.145 108.114, 195.095 108.344, 195.458 108.932 C 195.821 109.519, 196.627 110, 197.250 110 C 197.873 110, 197.509 109.339, 196.441 108.532 C 194.126 106.781, 193.322 106.670, 192.507 107.989 M 651 108.378 C 651 108.585, 651.788 109.373, 652.750 110.128 C 654.336 111.371, 654.371 111.336, 653.128 109.750 C 651.821 108.084, 651 107.555, 651 108.378 M 433.079 110.583 C 433.127 111.748, 433.364 111.985, 433.683 111.188 C 433.972 110.466, 433.936 109.603, 433.604 109.271 C 433.272 108.939, 433.036 109.529, 433.079 110.583 M 190 110.711 C 190 111.285, 190.787 112.373, 191.750 113.128 C 193.369 114.397, 193.390 114.350, 192.033 112.500 C 191.226 111.400, 190.439 110.313, 190.283 110.083 C 190.127 109.854, 190 110.137, 190 110.711 M 199.543 111.931 C 199.226 112.443, 199.350 113.098, 199.817 113.387 C 200.284 113.676, 200.667 113.257, 200.667 112.456 C 200.667 110.770, 200.351 110.623, 199.543 111.931 M 196.437 114.771 C 196.779 115.112, 197.761 115.494, 198.621 115.621 C 199.480 115.747, 199.904 115.571, 199.563 115.229 C 199.221 114.888, 198.239 114.506, 197.379 114.379 C 196.520 114.253, 196.096 114.429, 196.437 114.771 M 202 115.059 C 202 115.641, 202.450 115.840, 203 115.500 C 203.550 115.160, 204 114.684, 204 114.441 C 204 114.198, 203.550 114, 203 114 C 202.450 114, 202 114.477, 202 115.059 M 412.079 115.583 C 412.127 116.748, 412.364 116.985, 412.683 116.188 C 412.972 115.466, 412.936 114.603, 412.604 114.271 C 412.272 113.939, 412.036 114.529, 412.079 115.583 M 513.459 115.067 C 513.096 115.653, 513.014 116.348, 513.276 116.610 C 513.538 116.872, 514.019 116.392, 514.345 115.543 C 515.021 113.781, 514.445 113.471, 513.459 115.067 M 645.347 115.831 C 646.259 116.838, 646.666 118.035, 646.252 118.491 C 645.838 118.948, 646.092 118.979, 646.815 118.561 C 647.863 117.956, 647.780 117.415, 646.410 115.901 C 645.464 114.855, 644.465 114, 644.190 114 C 643.915 114, 644.436 114.824, 645.347 115.831 M 651.183 115.217 C 650.533 115.868, 650 116.792, 650 117.271 C 650 117.751, 650.729 117.414, 651.619 116.524 C 652.510 115.633, 653.042 114.709, 652.802 114.469 C 652.563 114.229, 651.834 114.566, 651.183 115.217 M 652.405 118.250 L 650.500 120.500 652.750 118.595 C 654.864 116.805, 655.455 116, 654.655 116 C 654.465 116, 653.453 117.013, 652.405 118.250 M 196.542 118.069 C 196.870 118.599, 197.491 118.815, 197.922 118.548 C 198.353 118.282, 199.559 118.710, 200.603 119.500 C 201.646 120.290, 202.938 120.951, 203.473 120.968 C 204.007 120.986, 203.444 120.299, 202.221 119.442 C 199.617 117.618, 195.675 116.665, 196.542 118.069 M 632.656 125.545 C 632.960 126.339, 633.612 126.740, 634.105 126.435 C 635.345 125.669, 635.231 125.303, 633.551 124.658 C 632.584 124.287, 632.286 124.582, 632.656 125.545 M 202 125.378 C 202 125.585, 202.787 126.373, 203.750 127.128 C 205.336 128.371, 205.371 128.336, 204.128 126.750 C 202.821 125.084, 202 124.555, 202 125.378 M 217.333 126.456 C 217.333 127.257, 217.716 127.676, 218.183 127.387 C 218.650 127.098, 218.774 126.443, 218.457 125.931 C 217.649 124.623, 217.333 124.770, 217.333 126.456 M 637.014 127.414 C 637.662 128.062, 638.338 128.062, 638.986 127.414 C 639.633 126.767, 639.295 126.429, 638 126.429 C 636.705 126.429, 636.367 126.767, 637.014 127.414 M 344.459 131.067 C 344.096 131.653, 344.070 132.403, 344.400 132.733 C 344.730 133.063, 345 132.782, 345 132.108 C 345 131.434, 345.520 131.203, 346.155 131.595 C 346.870 132.038, 347.038 131.870, 346.595 131.155 C 345.711 129.724, 345.299 129.707, 344.459 131.067 M 516.184 132.504 C 516.811 133.882, 517.459 134.874, 517.623 134.711 C 518.231 134.102, 516.735 130, 515.905 130 C 515.431 130, 515.556 131.127, 516.184 132.504 M 501.557 132.908 C 501.249 133.407, 501.413 134.869, 501.924 136.158 C 502.766 138.286, 502.835 138.203, 502.675 135.252 C 502.485 131.726, 502.399 131.546, 501.557 132.908 M 618.872 134.750 C 617.629 136.336, 617.664 136.371, 619.250 135.128 C 620.916 133.821, 621.445 133, 620.622 133 C 620.415 133, 619.627 133.787, 618.872 134.750 M 346.613 135.183 C 346.902 135.650, 347.557 135.774, 348.069 135.457 C 349.377 134.649, 349.230 134.333, 347.544 134.333 C 346.743 134.333, 346.324 134.716, 346.613 135.183 M 349.031 137.500 C 349.031 138.050, 349.467 139.175, 350 140 C 350.533 140.825, 350.969 141.050, 350.969 140.500 C 350.969 139.950, 350.533 138.825, 350 138 C 349.467 137.175, 349.031 136.950, 349.031 137.500 M 634.543 137.931 C 634.226 138.443, 634.350 139.098, 634.817 139.387 C 635.284 139.676, 635.667 139.257, 635.667 138.456 C 635.667 136.770, 635.351 136.623, 634.543 137.931 M 497.564 139.707 C 497.022 141.132, 497.136 141.247, 498.124 140.267 C 498.808 139.588, 499.115 138.781, 498.807 138.474 C 498.499 138.166, 497.940 138.721, 497.564 139.707 M 213 139.378 C 213 139.585, 213.787 140.373, 214.750 141.128 C 216.336 142.371, 216.371 142.336, 215.128 140.750 C 213.821 139.084, 213 138.555, 213 139.378 M 232 141.378 C 232 141.585, 232.787 142.373, 233.750 143.128 C 235.336 144.371, 235.371 144.336, 234.128 142.750 C 232.821 141.084, 232 140.555, 232 141.378 M 239.083 142.283 C 239.313 142.439, 240.400 143.226, 241.500 144.033 C 243.350 145.390, 243.397 145.369, 242.128 143.750 C 241.373 142.787, 240.285 142, 239.711 142 C 239.137 142, 238.854 142.127, 239.083 142.283 M 625.500 145 C 625.160 145.550, 625.021 146.034, 625.191 146.077 C 628.484 146.892, 629.044 146.758, 627.933 145.420 C 626.532 143.732, 626.308 143.693, 625.500 145 M 353.872 147.750 C 352.658 149.298, 352.683 149.357, 354.092 148.259 C 354.968 147.576, 356.052 147.351, 356.502 147.759 C 356.952 148.166, 356.997 147.938, 356.601 147.250 C 355.672 145.634, 355.508 145.664, 353.872 147.750 M 602.882 147.750 C 602.816 148.162, 602.835 148.893, 602.922 149.373 C 603.010 149.853, 602.421 149.992, 601.614 149.682 C 600.807 149.372, 599.551 149.854, 598.823 150.751 C 597.696 152.142, 597.722 152.248, 599 151.468 C 599.825 150.965, 601.131 150.541, 601.902 150.526 C 603.091 150.504, 604.590 147, 603.412 147 C 603.185 147, 602.947 147.338, 602.882 147.750 M 244.333 149.584 C 244.333 150.261, 245.003 150.552, 245.831 150.235 C 246.919 149.817, 247.094 150.048, 246.472 151.080 C 245.738 152.298, 245.860 152.302, 247.332 151.107 C 249.248 149.553, 248.858 148.692, 246.146 148.492 C 245.149 148.419, 244.333 148.910, 244.333 149.584 M 241.543 149.931 C 241.226 150.443, 241.350 151.098, 241.817 151.387 C 242.284 151.676, 242.667 151.257, 242.667 150.456 C 242.667 148.770, 242.351 148.623, 241.543 149.931 M 490.601 150.836 C 490.347 151.248, 491.007 151.650, 492.069 151.730 C 494.366 151.903, 494.568 151.432, 492.532 150.651 C 491.725 150.341, 490.856 150.424, 490.601 150.836 M 624.490 152.016 C 624.144 152.575, 623.474 152.793, 623 152.500 C 622.526 152.207, 621.880 152.385, 621.564 152.896 C 620.753 154.209, 623.776 153.624, 625.210 152.190 C 625.865 151.535, 626.112 151, 625.759 151 C 625.406 151, 624.835 151.457, 624.490 152.016 M 224.437 152.771 C 224.779 153.112, 225.761 153.494, 226.621 153.621 C 227.480 153.747, 227.904 153.571, 227.563 153.229 C 227.221 152.888, 226.239 152.506, 225.379 152.379 C 224.520 152.253, 224.096 152.429, 224.437 152.771 M 616.459 153.067 C 616.096 153.653, 616.014 154.348, 616.276 154.610 C 616.538 154.872, 617.019 154.392, 617.345 153.543 C 618.021 151.781, 617.445 151.471, 616.459 153.067 M 597.872 154.750 C 596.629 156.336, 596.664 156.371, 598.250 155.128 C 599.916 153.821, 600.445 153, 599.622 153 C 599.415 153, 598.627 153.787, 597.872 154.750 M 228.603 154.833 C 228.320 155.292, 228.723 155.667, 229.500 155.667 C 230.277 155.667, 230.680 155.292, 230.397 154.833 C 230.114 154.375, 229.710 154, 229.500 154 C 229.290 154, 228.886 154.375, 228.603 154.833 M 360.454 156.417 C 360.479 157.746, 360.861 159.195, 361.303 159.637 C 361.744 160.078, 361.780 159.591, 361.383 158.555 C 360.854 157.177, 361 156.882, 361.930 157.457 C 362.932 158.076, 362.960 157.794, 362.065 156.121 C 360.617 153.415, 360.397 153.456, 360.454 156.417 M 592.872 155.750 C 591.603 157.369, 591.650 157.390, 593.500 156.033 C 594.600 155.226, 595.688 154.439, 595.917 154.283 C 596.146 154.127, 595.863 154, 595.289 154 C 594.715 154, 593.627 154.787, 592.872 155.750 M 259 157.500 C 260.292 158.875, 261.574 160, 261.849 160 C 262.124 160, 261.292 158.875, 260 157.500 C 258.708 156.125, 257.426 155, 257.151 155 C 256.876 155, 257.708 156.125, 259 157.500 M 248 156.393 C 248 156.609, 248.698 157.054, 249.552 157.382 C 250.442 157.723, 250.843 157.555, 250.493 156.989 C 249.906 156.038, 248 155.583, 248 156.393 M 338.079 158.583 C 338.127 159.748, 338.364 159.985, 338.683 159.188 C 338.972 158.466, 338.936 157.603, 338.604 157.271 C 338.272 156.939, 338.036 157.529, 338.079 158.583 M 230 159.378 C 230 159.585, 230.787 160.373, 231.750 161.128 C 233.336 162.371, 233.371 162.336, 232.128 160.750 C 230.821 159.084, 230 158.555, 230 159.378 M 612.464 161.059 C 611.981 161.839, 612.099 162.057, 612.776 161.638 C 614.487 160.581, 615.309 162.906, 613.891 164.794 C 612.748 166.316, 612.815 166.311, 614.519 164.750 C 616.267 163.148, 616.294 162.865, 614.833 161.404 C 613.599 160.170, 613.061 160.092, 612.464 161.059 M 234.981 162.523 C 233.924 163.796, 233.986 163.943, 235.359 163.416 C 236.261 163.069, 237 162.384, 237 161.893 C 237 160.607, 236.421 160.788, 234.981 162.523 M 609.429 163 C 609.429 164.295, 609.767 164.633, 610.414 163.986 C 611.062 163.338, 611.062 162.662, 610.414 162.014 C 609.767 161.367, 609.429 161.705, 609.429 163 M 238.386 164.437 C 238.075 165.248, 237.160 165.615, 236.288 165.280 C 235.289 164.897, 235.560 165.629, 237.051 167.343 C 238.321 168.804, 239.595 170, 239.880 170 C 240.166 170, 239.860 169.460, 239.200 168.800 C 237.868 167.468, 237.551 165.604, 238.786 166.368 C 239.218 166.635, 239.571 165.986, 239.571 164.927 C 239.571 162.638, 239.144 162.461, 238.386 164.437 M 364 164.941 C 364 165.459, 364.445 166.157, 364.989 166.493 C 365.555 166.843, 365.723 166.442, 365.382 165.552 C 364.717 163.820, 364 163.503, 364 164.941 M 265.733 166.124 C 266.412 166.808, 267.219 167.115, 267.526 166.807 C 267.834 166.499, 267.279 165.940, 266.293 165.564 C 264.868 165.022, 264.753 165.136, 265.733 166.124 M 272.543 168.931 C 271.878 170.007, 273.835 171.498, 274.733 170.600 C 275.063 170.270, 274.782 170, 274.108 170 C 273.434 170, 273.160 169.550, 273.500 169 C 273.840 168.450, 273.893 168, 273.618 168 C 273.343 168, 272.859 168.419, 272.543 168.931 M 608.872 170.750 C 607.629 172.336, 607.664 172.371, 609.250 171.128 C 610.916 169.821, 611.445 169, 610.622 169 C 610.415 169, 609.627 169.787, 608.872 170.750 M 370.910 171.832 C 371.450 172.840, 372.676 174.302, 373.637 175.082 C 374.717 175.960, 374.475 175.261, 373.003 173.250 C 370.377 169.662, 369.392 168.995, 370.910 171.832 M 478.459 171.067 C 478.096 171.653, 478.014 172.348, 478.276 172.610 C 478.538 172.872, 479.019 172.392, 479.345 171.543 C 480.021 169.781, 479.445 169.471, 478.459 171.067 M 605.500 173 C 605.160 173.550, 605.359 174, 605.941 174 C 606.523 174, 607 173.550, 607 173 C 607 172.450, 606.802 172, 606.559 172 C 606.316 172, 605.840 172.450, 605.500 173 M 242 173.378 C 242 173.585, 242.787 174.373, 243.750 175.128 C 245.336 176.371, 245.371 176.336, 244.128 174.750 C 242.821 173.084, 242 172.555, 242 173.378 M 566.872 175.750 C 565.629 177.336, 565.664 177.371, 567.250 176.128 C 568.212 175.373, 569 174.585, 569 174.378 C 569 173.555, 568.179 174.084, 566.872 175.750 M 441.079 177.583 C 441.127 178.748, 441.364 178.985, 441.683 178.188 C 441.972 177.466, 441.936 176.603, 441.604 176.271 C 441.272 175.939, 441.036 176.529, 441.079 177.583 M 474.624 177.539 C 473.659 180.053, 473.943 180.702, 475.122 178.675 C 475.706 177.671, 475.973 176.639, 475.715 176.382 C 475.458 176.124, 474.966 176.645, 474.624 177.539 M 245 177.378 C 245 177.585, 245.787 178.373, 246.750 179.128 C 248.336 180.371, 248.371 180.336, 247.128 178.750 C 245.821 177.084, 245 176.555, 245 177.378 M 342.079 178.583 C 342.127 179.748, 342.364 179.985, 342.683 179.188 C 342.972 178.466, 342.936 177.603, 342.604 177.271 C 342.272 176.939, 342.036 177.529, 342.079 178.583 M 475.564 180.707 C 475.022 182.132, 475.136 182.247, 476.124 181.267 C 476.808 180.588, 477.115 179.781, 476.807 179.474 C 476.499 179.166, 475.940 179.721, 475.564 180.707 M 564.543 180.931 C 564.226 181.443, 564.350 182.098, 564.817 182.387 C 565.284 182.676, 565.667 182.257, 565.667 181.456 C 565.667 179.770, 565.351 179.623, 564.543 180.931 M 556.405 184.250 L 554.500 186.500 556.750 184.595 C 558.864 182.805, 559.455 182, 558.655 182 C 558.465 182, 557.453 183.012, 556.405 184.250 M 404.564 184.293 C 404.940 185.279, 405.499 185.834, 405.807 185.526 C 406.115 185.219, 405.808 184.412, 405.124 183.733 C 404.136 182.753, 404.022 182.868, 404.564 184.293 M 470.507 183.989 C 470.157 184.555, 470.558 184.723, 471.448 184.382 C 473.180 183.717, 473.497 183, 472.059 183 C 471.541 183, 470.843 183.445, 470.507 183.989 M 293 187 C 292.099 187.582, 291.975 187.975, 292.691 187.985 C 293.346 187.993, 294.160 187.550, 294.500 187 C 295.267 185.758, 294.921 185.758, 293 187 M 379.289 187 C 379.531 187.825, 379.325 189.287, 378.830 190.250 C 378.335 191.213, 378.155 192, 378.430 192 C 379.745 192, 380.791 188.292, 379.854 186.946 C 378.989 185.703, 378.910 185.710, 379.289 187 M 417.813 186.683 C 418.534 186.972, 419.397 186.936, 419.729 186.604 C 420.061 186.272, 419.471 186.036, 418.417 186.079 C 417.252 186.127, 417.015 186.364, 417.813 186.683 M 297.429 188.886 C 297.429 190.032, 297.944 190.575, 298.740 190.270 C 299.739 189.886, 299.778 189.437, 298.903 188.383 C 297.445 186.626, 297.429 186.632, 297.429 188.886 M 416.813 188.683 C 417.534 188.972, 418.397 188.936, 418.729 188.604 C 419.061 188.272, 418.471 188.036, 417.417 188.079 C 416.252 188.127, 416.015 188.364, 416.813 188.683 M 585.500 193 C 585.160 193.550, 585.021 194.034, 585.191 194.077 C 588.484 194.892, 589.044 194.758, 587.933 193.420 C 586.532 191.732, 586.308 191.693, 585.500 193 M 259 193.678 C 259 194.235, 260.012 195.547, 261.250 196.595 L 263.500 198.500 261.511 196 C 260.417 194.625, 259.404 193.313, 259.261 193.083 C 259.117 192.854, 259 193.122, 259 193.678 M 474 194 C 472.667 194.862, 472.667 194.973, 474 195 C 475.333 195.027, 475.333 195.138, 474 196 C 473.175 196.533, 472.950 196.969, 473.500 196.969 C 474.050 196.969, 475.175 196.533, 476 196 C 477.090 195.296, 477.142 195.026, 476.191 195.015 C 475.471 195.007, 475.160 194.550, 475.500 194 C 476.267 192.758, 475.921 192.758, 474 194 M 541.761 196.580 C 539.709 198.461, 538.360 199.987, 538.765 199.971 C 539.743 199.932, 546.289 193.955, 545.842 193.509 C 545.650 193.317, 543.814 194.699, 541.761 196.580 M 304.740 195.043 C 305.422 195.778, 306.701 196.486, 307.582 196.615 C 308.462 196.744, 308.880 196.546, 308.508 196.175 C 308.137 195.804, 307.533 195.493, 307.167 195.485 C 306.800 195.476, 305.825 195.073, 305 194.588 C 303.784 193.874, 303.735 193.960, 304.740 195.043 M 372.166 194.876 C 371.109 195.546, 371.190 195.859, 372.559 196.384 C 373.509 196.749, 374.522 196.811, 374.810 196.524 C 375.098 196.236, 374.696 195.993, 373.917 195.985 C 372.750 195.972, 372.765 195.798, 374 195 C 374.825 194.467, 375.050 194.031, 374.500 194.031 C 373.950 194.031, 372.900 194.411, 372.166 194.876 M 477 197.393 C 477 197.609, 477.698 198.054, 478.552 198.382 C 479.442 198.723, 479.843 198.555, 479.493 197.989 C 478.906 197.038, 477 196.583, 477 197.393 M 548.500 198 C 548.160 198.550, 548.332 199, 548.882 199 C 549.432 199, 550.160 198.550, 550.500 198 C 550.840 197.450, 550.668 197, 550.118 197 C 549.568 197, 548.840 197.450, 548.500 198 M 584.490 200.016 C 584.144 200.575, 583.474 200.793, 583 200.500 C 582.526 200.207, 581.880 200.385, 581.564 200.896 C 580.753 202.209, 583.776 201.624, 585.210 200.190 C 585.865 199.535, 586.112 199, 585.759 199 C 585.406 199, 584.835 199.457, 584.490 200.016 M 312.543 202.931 C 311.878 204.007, 313.835 205.498, 314.733 204.600 C 315.063 204.270, 314.782 204, 314.108 204 C 313.434 204, 313.160 203.550, 313.500 203 C 313.840 202.450, 313.893 202, 313.618 202 C 313.343 202, 312.859 202.419, 312.543 202.931 M 531.611 203.820 C 531.287 204.344, 531.656 205.299, 532.431 205.943 C 533.542 206.865, 533.792 206.789, 533.615 205.585 C 533.312 203.520, 532.331 202.656, 531.611 203.820 M 317.014 206.414 C 317.662 207.062, 318.338 207.062, 318.986 206.414 C 319.633 205.767, 319.295 205.429, 318 205.429 C 316.705 205.429, 316.367 205.767, 317.014 206.414 M 312.733 207.124 C 313.412 207.808, 314.219 208.115, 314.526 207.807 C 314.834 207.499, 314.279 206.940, 313.293 206.564 C 311.868 206.022, 311.753 206.136, 312.733 207.124 M 577.252 206.509 C 577.666 206.965, 577.256 208.164, 576.342 209.175 C 575.427 210.185, 574.864 211.190, 575.089 211.408 C 575.315 211.626, 576.288 210.750, 577.251 209.462 C 578.595 207.666, 578.711 206.952, 577.751 206.400 C 577.063 206.003, 576.838 206.052, 577.252 206.509 M 272.057 209.569 C 272.701 210.344, 273.656 210.713, 274.180 210.389 C 275.344 209.669, 274.480 208.688, 272.415 208.385 C 271.211 208.208, 271.135 208.458, 272.057 209.569 M 276.872 209.750 C 275.629 211.336, 275.664 211.371, 277.250 210.128 C 278.212 209.373, 279 208.585, 279 208.378 C 279 207.555, 278.179 208.084, 276.872 209.750 M 324.500 211 C 324.840 211.550, 325.316 212, 325.559 212 C 325.802 212, 326 211.550, 326 211 C 326 210.450, 325.523 210, 324.941 210 C 324.359 210, 324.160 210.450, 324.500 211 M 416.416 212.406 C 413.712 213.662, 408.800 215.963, 405.500 217.519 C 399.449 220.371, 352.866 244.283, 332.500 254.991 C 235.889 305.787, 160.182 345.426, 155.447 347.692 L 149.500 350.538 149.200 356.269 C 148.874 362.496, 148.846 362.452, 152.203 361.021 C 153.466 360.483, 167.775 355.349, 184 349.614 C 327.366 298.933, 354.826 289.142, 374.500 281.690 C 397.026 273.158, 413.363 267.933, 419.528 267.290 C 424.859 266.734, 429.589 268.369, 616 335.167 C 664.198 352.438, 697.562 364, 699.205 364 C 699.702 364, 699.972 361.916, 699.805 359.369 L 699.500 354.738 673 340.837 C 658.425 333.191, 639.525 323.280, 631 318.813 C 622.475 314.345, 606.950 306.202, 596.500 300.717 C 530.881 266.274, 470.278 234.816, 443.916 221.516 L 421.332 210.121 416.416 212.406 M 524.813 210.683 C 525.534 210.972, 526.397 210.936, 526.729 210.604 C 527.061 210.272, 526.471 210.036, 525.417 210.079 C 524.252 210.127, 524.015 210.364, 524.813 210.683 M 275.613 213.183 C 275.902 213.650, 276.557 213.774, 277.069 213.457 C 278.377 212.649, 278.230 212.333, 276.544 212.333 C 275.743 212.333, 275.324 212.716, 275.613 213.183 M 324.733 214.124 C 325.412 214.808, 326.219 215.115, 326.526 214.807 C 326.834 214.499, 326.279 213.940, 325.293 213.564 C 323.868 213.022, 323.753 213.136, 324.733 214.124 M 328.399 214.250 C 328.003 214.938, 328.048 215.166, 328.498 214.759 C 328.948 214.351, 330.032 214.576, 330.908 215.259 C 332.317 216.357, 332.342 216.298, 331.128 214.750 C 329.492 212.664, 329.328 212.634, 328.399 214.250 M 518.872 214.750 C 517.658 216.298, 517.683 216.357, 519.092 215.259 C 519.968 214.576, 521.052 214.351, 521.502 214.759 C 521.952 215.166, 521.997 214.938, 521.601 214.250 C 520.672 212.634, 520.508 212.664, 518.872 214.750 M 524.489 214.711 C 525.573 215.944, 526.288 216.112, 527.080 215.320 C 527.872 214.528, 527.832 214.014, 526.933 213.458 C 526.132 212.964, 525.945 213.101, 526.405 213.845 C 527.280 215.262, 525.841 215.365, 524.196 214.004 C 523.534 213.456, 523.666 213.774, 524.489 214.711 M 277 215.313 C 277 215.485, 278.462 216.948, 280.250 218.563 L 283.500 221.500 280.563 218.250 C 277.825 215.221, 277 214.540, 277 215.313 M 285.458 217.067 C 284.929 217.925, 285.101 218.056, 286.015 217.490 C 287.011 216.875, 287.159 217.147, 286.611 218.586 C 286.026 220.121, 286.131 220.253, 287.141 219.250 C 288.048 218.350, 288.096 217.696, 287.313 216.913 C 286.530 216.130, 286.011 216.173, 285.458 217.067 M 517.500 218 C 518.495 219.100, 519.535 220, 519.810 220 C 520.085 220, 519.495 219.100, 518.500 218 C 517.505 216.900, 516.465 216, 516.190 216 C 515.915 216, 516.505 216.900, 517.500 218 M 328.333 218.456 C 328.333 219.257, 328.716 219.676, 329.183 219.387 C 329.650 219.098, 329.774 218.443, 329.457 217.931 C 328.649 216.623, 328.333 216.770, 328.333 218.456 M 331.564 219.707 C 331.022 221.132, 331.136 221.247, 332.124 220.267 C 332.808 219.588, 333.115 218.781, 332.807 218.474 C 332.499 218.166, 331.940 218.721, 331.564 219.707 M 284.564 222.707 C 284.022 224.132, 284.136 224.247, 285.124 223.267 C 285.808 222.588, 286.115 221.781, 285.807 221.474 C 285.499 221.166, 284.940 221.721, 284.564 222.707 M 286 225.378 C 286 225.585, 286.788 226.373, 287.750 227.128 C 289.336 228.371, 289.371 228.336, 288.128 226.750 C 286.821 225.084, 286 224.555, 286 225.378 M 526.333 226.456 C 526.333 227.257, 526.716 227.676, 527.183 227.387 C 527.650 227.098, 527.774 226.443, 527.457 225.931 C 526.649 224.623, 526.333 224.770, 526.333 226.456 M 553.459 226.067 C 553.096 226.653, 553.014 227.348, 553.276 227.610 C 553.538 227.872, 554.019 227.392, 554.345 226.543 C 555.021 224.781, 554.445 224.471, 553.459 226.067 M 291.100 227.705 C 291.829 228.917, 292.640 229.694, 292.903 229.431 C 293.166 229.168, 292.570 228.176, 291.579 227.226 C 289.857 225.577, 289.835 225.598, 291.100 227.705 M 558.571 229.571 C 556.286 231.857, 556.643 232.633, 559 230.500 C 560.100 229.505, 561 228.535, 561 228.345 C 561 227.602, 560.073 228.070, 558.571 229.571 M 552.340 232.582 C 552.428 234.278, 553.038 235.665, 553.696 235.666 C 554.462 235.666, 554.600 235.097, 554.081 234.083 C 553.635 233.213, 553.025 231.825, 552.725 231 C 552.425 230.175, 552.252 230.887, 552.340 232.582 M 313 232.059 C 313 232.641, 313.450 232.840, 314 232.500 C 314.550 232.160, 315 231.684, 315 231.441 C 315 231.198, 314.550 231, 314 231 C 313.450 231, 313 231.477, 313 232.059 M 533.415 233.138 C 532.983 233.836, 533.123 234.042, 533.760 233.648 C 534.348 233.285, 535.057 233.553, 535.336 234.244 C 535.698 235.143, 535.865 235.161, 535.921 234.309 C 536.035 232.588, 534.265 231.761, 533.415 233.138 M 298 239 C 298.589 240.100, 299.295 241, 299.570 241 C 299.845 241, 299.589 240.100, 299 239 C 298.411 237.900, 297.705 237, 297.430 237 C 297.155 237, 297.411 237.900, 298 239 M 538 238.941 C 538 239.459, 538.445 240.157, 538.989 240.493 C 539.555 240.843, 539.723 240.442, 539.382 239.552 C 538.717 237.820, 538 237.503, 538 238.941 M 307.613 241.183 C 307.902 241.650, 308.557 241.774, 309.069 241.457 C 310.377 240.649, 310.230 240.333, 308.544 240.333 C 307.743 240.333, 307.324 240.716, 307.613 241.183 M 546.439 243.064 C 544.716 244.862, 544.201 245.860, 545.192 245.480 C 546.625 244.930, 550.690 240, 549.710 240 C 549.525 240, 548.053 241.379, 546.439 243.064 M 226.500 385.527 C 194.733 390.636, 176.957 404.119, 171.506 427.240 C 170.694 430.683, 170.030 438, 170.030 443.500 C 170.030 467.876, 179.233 483.926, 198.515 493.178 L 207.104 497.299 240.302 494.625 C 284.773 491.044, 300.039 490.019, 309.106 490.009 C 316.238 490.001, 316.995 489.784, 321.250 486.535 C 327.112 482.059, 333.419 472.557, 336.109 464.150 C 339.118 454.744, 339.780 438.605, 337.565 428.648 C 332.465 405.723, 317.581 393.060, 288 386.478 C 277.398 384.120, 238.948 383.524, 226.500 385.527 M 566.463 385.878 C 564.243 386.886, 560.496 389.689, 558.138 392.106 C 555.779 394.523, 539.662 416.525, 522.322 441 L 490.796 485.500 499.648 486.144 C 504.517 486.498, 513.900 486.830, 520.500 486.880 L 532.500 486.973 554.417 455.953 C 566.471 438.893, 576.650 425.286, 577.036 425.717 C 577.422 426.148, 581.027 431.450, 585.048 437.500 C 589.069 443.550, 595.878 453.587, 600.179 459.804 C 604.481 466.022, 608 471.219, 608 471.353 C 608 471.487, 597.313 471.439, 584.250 471.244 C 571.188 471.050, 560.033 471.253, 559.463 471.696 C 558.387 472.530, 548 486.695, 548 487.328 C 548 487.525, 555.538 487.983, 564.750 488.346 C 580.199 488.954, 647.819 493.234, 661.355 494.461 C 665.788 494.862, 667.091 494.689, 666.720 493.746 C 665.504 490.660, 599.637 396.032, 596.038 392.201 C 593.818 389.837, 590.088 387.034, 587.750 385.973 C 582.137 383.425, 571.962 383.380, 566.463 385.878 M 34.500 387.485 C 25.727 389.425, 19.659 392.351, 14.446 397.157 C 8.961 402.213, 6.660 406.425, 5.006 414.439 C 1.920 429.390, 8.148 442.987, 21.085 449.543 C 30.713 454.422, 36.291 454.964, 77.101 454.983 C 101.931 454.994, 115.778 455.375, 117.872 456.105 C 123.448 458.049, 124.791 464.300, 120.545 468.545 L 118.091 471 71.295 471.015 C 45.558 471.024, 24.020 471.361, 23.434 471.765 C 21.690 472.967, 1 500.072, 1 501.155 C 1 501.809, 21.658 502.017, 61.250 501.761 C 119.497 501.384, 121.763 501.298, 129.414 499.184 C 139.221 496.475, 144.627 493.367, 149.847 487.436 C 155.286 481.257, 157.433 474.612, 157.419 464 C 157.401 450.477, 152.833 442.527, 141.866 436.932 C 133.431 432.629, 126.807 432.039, 86 431.961 C 43.050 431.879, 41.181 431.647, 39.633 426.229 C 38.447 422.076, 40.041 418.315, 43.553 416.980 C 45.090 416.396, 63.368 416, 88.833 416 L 131.536 416 142.018 402.312 C 147.783 394.783, 152.860 388.033, 153.300 387.312 C 154.473 385.387, 43.257 385.550, 34.500 387.485 M 357 437.140 L 357 488.280 362.750 487.642 C 365.913 487.291, 391.750 486.706, 420.166 486.341 L 471.832 485.678 476.870 479.093 C 479.641 475.471, 481.541 472.141, 481.093 471.693 C 480.644 471.244, 460.640 471.017, 436.638 471.189 L 392.999 471.500 392.999 428.750 L 393 386 375 386 L 357 386 357 437.140 M 696.500 400.164 C 690.450 407.989, 685.350 414.753, 685.167 415.196 C 684.983 415.638, 708.608 416.003, 737.667 416.006 C 771.677 416.009, 791.855 416.387, 794.303 417.067 C 806.654 420.497, 808.500 434.055, 797.368 439.580 C 793.737 441.382, 790.162 441.531, 739 442 L 684.500 442.500 684.233 468.775 C 684.025 489.261, 684.246 495.153, 685.233 495.517 C 687.313 496.284, 720.034 499.633, 720.536 499.130 C 720.791 498.875, 721 492.442, 721 484.833 L 721 471 748.259 471 L 775.518 471 788.484 486.500 L 801.449 502 824.725 502 C 840.039 502, 848 501.647, 848 500.969 C 848 499.780, 827.275 477.860, 818.750 470.032 C 812.702 464.479, 811.871 463.014, 814.750 462.978 C 818.238 462.934, 825.146 458.976, 830.391 454.014 C 837.290 447.490, 840.960 439.567, 841.716 429.567 C 842.924 413.605, 835.394 400.717, 820.658 393.524 C 806.509 386.618, 806.585 386.626, 754.500 386.264 L 707.500 385.938 696.500 400.164 M 232.563 414.995 C 220.018 416.579, 212.933 420.273, 208.884 427.339 C 206.736 431.089, 206.500 432.686, 206.500 443.500 C 206.500 454.372, 206.728 455.898, 208.926 459.736 C 214.252 469.033, 222.727 471.882, 247.521 472.709 C 290.429 474.139, 303 467.521, 303 443.500 C 303 427.424, 297.882 420.286, 283.500 416.304 C 277.408 414.617, 242.630 413.723, 232.563 414.995 M 383 494 C 383.825 494.533, 385.175 494.945, 386 494.914 C 386.989 494.878, 386.819 494.567, 385.500 494 C 382.751 492.819, 381.172 492.819, 383 494 M 519 494 C 518.175 494.533, 517.950 494.969, 518.500 494.969 C 519.050 494.969, 520.175 494.533, 521 494 C 521.825 493.467, 522.050 493.031, 521.500 493.031 C 520.950 493.031, 519.825 493.467, 519 494 M 634.813 501.683 C 635.534 501.972, 636.397 501.936, 636.729 501.604 C 637.061 501.272, 636.471 501.036, 635.417 501.079 C 634.252 501.127, 634.015 501.364, 634.813 501.683 M 255.813 502.683 C 256.534 502.972, 257.397 502.936, 257.729 502.604 C 258.061 502.272, 257.471 502.036, 256.417 502.079 C 255.252 502.127, 255.015 502.364, 255.813 502.683 M 272.750 502.662 C 273.438 502.940, 274.563 502.940, 275.250 502.662 C 275.938 502.385, 275.375 502.158, 274 502.158 C 272.625 502.158, 272.063 502.385, 272.750 502.662 M 199.589 506.144 C 199.880 506.615, 199.341 507, 198.392 507 C 197.443 507, 196.917 507.251, 197.224 507.557 C 197.530 507.863, 199.293 507.717, 201.140 507.232 L 204.500 506.350 201.780 505.820 C 200.284 505.528, 199.298 505.674, 199.589 506.144 M 278.756 506.664 C 279.447 506.943, 279.784 507.540, 279.505 507.992 C 279.226 508.444, 279.986 508.555, 281.195 508.239 C 283.292 507.690, 283.304 507.629, 281.446 506.902 C 280.376 506.483, 279.050 506.144, 278.500 506.149 C 277.950 506.154, 278.065 506.386, 278.756 506.664 M 304.813 506.683 C 305.534 506.972, 306.397 506.936, 306.729 506.604 C 307.061 506.272, 306.471 506.036, 305.417 506.079 C 304.252 506.127, 304.015 506.364, 304.813 506.683 M 685.813 506.683 C 686.534 506.972, 687.397 506.936, 687.729 506.604 C 688.061 506.272, 687.471 506.036, 686.417 506.079 C 685.252 506.127, 685.015 506.364, 685.813 506.683 M 742.750 510.662 C 743.438 510.940, 744.563 510.940, 745.250 510.662 C 745.938 510.385, 745.375 510.158, 744 510.158 C 742.625 510.158, 742.063 510.385, 742.750 510.662 M 157.813 513.683 C 158.534 513.972, 159.397 513.936, 159.729 513.604 C 160.061 513.272, 159.471 513.036, 158.417 513.079 C 157.252 513.127, 157.015 513.364, 157.813 513.683 M 113.813 518.683 C 114.534 518.972, 115.397 518.936, 115.729 518.604 C 116.061 518.272, 115.471 518.036, 114.417 518.079 C 113.252 518.127, 113.015 518.364, 113.813 518.683 M 573.031 521.500 C 573.031 522.050, 573.467 523.175, 574 524 C 574.533 524.825, 574.969 525.050, 574.969 524.500 C 574.969 523.950, 574.533 522.825, 574 522 C 573.467 521.175, 573.031 520.950, 573.031 521.500 M 420.813 522.683 C 421.534 522.972, 422.397 522.936, 422.729 522.604 C 423.061 522.272, 422.471 522.036, 421.417 522.079 C 420.252 522.127, 420.015 522.364, 420.813 522.683 M 101.813 524.683 C 102.534 524.972, 103.397 524.936, 103.729 524.604 C 104.061 524.272, 103.471 524.036, 102.417 524.079 C 101.252 524.127, 101.015 524.364, 101.813 524.683 M 374.079 525.583 C 374.127 526.748, 374.364 526.985, 374.683 526.188 C 374.972 525.466, 374.936 524.603, 374.604 524.271 C 374.272 523.939, 374.036 524.529, 374.079 525.583 M 439.736 525.527 C 440.935 526.367, 441.679 527.672, 441.390 528.426 C 441.100 529.181, 441.268 530.047, 441.761 530.352 C 443.120 531.192, 442.569 527.390, 441.069 525.583 C 440.346 524.713, 439.260 524, 438.655 524 C 438.050 524, 438.536 524.687, 439.736 525.527 M 502.603 524.833 C 502.320 525.292, 502.723 525.667, 503.500 525.667 C 504.277 525.667, 504.680 525.292, 504.397 524.833 C 504.114 524.375, 503.710 524, 503.500 524 C 503.290 524, 502.886 524.375, 502.603 524.833 M 511.507 524.989 C 511.157 525.555, 511.558 525.723, 512.448 525.382 C 514.180 524.717, 514.497 524, 513.059 524 C 512.541 524, 511.843 524.445, 511.507 524.989 M 521.813 524.683 C 522.534 524.972, 523.397 524.936, 523.729 524.604 C 524.061 524.272, 523.471 524.036, 522.417 524.079 C 521.252 524.127, 521.015 524.364, 521.813 524.683 M 535.813 524.683 C 536.534 524.972, 537.397 524.936, 537.729 524.604 C 538.061 524.272, 537.471 524.036, 536.417 524.079 C 535.252 524.127, 535.015 524.364, 535.813 524.683 M 539.079 525.583 C 539.127 526.748, 539.364 526.985, 539.683 526.188 C 539.972 525.466, 539.936 524.603, 539.604 524.271 C 539.272 523.939, 539.036 524.529, 539.079 525.583 M 277.813 525.683 C 278.534 525.972, 279.397 525.936, 279.729 525.604 C 280.061 525.272, 279.471 525.036, 278.417 525.079 C 277.252 525.127, 277.015 525.364, 277.813 525.683 M 377 527.059 C 377 527.641, 377.450 527.840, 378 527.500 C 378.550 527.160, 379 526.684, 379 526.441 C 379 526.198, 378.550 526, 378 526 C 377.450 526, 377 526.477, 377 527.059 M 444.792 527.153 C 445.847 528.503, 445.847 528.900, 444.792 529.324 C 443.905 529.680, 443.874 529.867, 444.691 529.921 C 446.739 530.057, 447.056 528.288, 445.239 526.863 C 443.688 525.647, 443.639 525.678, 444.792 527.153 M 324.233 528.917 C 324.894 529.788, 325.537 530.663, 325.663 530.863 C 325.790 531.063, 325.827 530.350, 325.746 529.280 C 325.665 528.209, 325.022 527.333, 324.316 527.333 C 323.305 527.333, 323.288 527.671, 324.233 528.917 M 537.333 528.544 C 537.333 529.345, 537.708 530, 538.167 530 C 538.625 530, 539 529.577, 539 529.059 C 539 528.541, 538.625 527.886, 538.167 527.603 C 537.708 527.320, 537.333 527.743, 537.333 528.544 M 495.456 530.071 C 495.081 530.678, 495.215 531.615, 495.754 532.154 C 496.394 532.794, 496.939 532.602, 497.324 531.599 C 498.023 529.776, 496.439 528.480, 495.456 530.071 M 492.574 531.667 C 492.222 532.584, 492.287 533.686, 492.717 534.116 C 493.148 534.546, 493.565 533.796, 493.644 532.449 C 493.813 529.588, 493.469 529.337, 492.574 531.667 M 538.500 532 C 538.840 532.550, 539.316 533, 539.559 533 C 539.802 533, 540 532.550, 540 532 C 540 531.450, 539.523 531, 538.941 531 C 538.359 531, 538.160 531.450, 538.500 532 M 36.750 532.662 C 37.438 532.940, 38.563 532.940, 39.250 532.662 C 39.938 532.385, 39.375 532.158, 38 532.158 C 36.625 532.158, 36.063 532.385, 36.750 532.662 M 326.097 533.383 C 325.222 534.437, 325.261 534.886, 326.260 535.270 C 327.056 535.575, 327.571 535.032, 327.571 533.886 C 327.571 531.632, 327.555 531.626, 326.097 533.383 M 486.500 534 C 485.505 535.100, 485.040 536, 485.467 536 C 485.895 536, 485.667 536.696, 484.961 537.547 C 484.176 538.492, 483.434 538.702, 483.054 538.087 C 482.706 537.524, 481.838 538.053, 481.084 539.290 C 480.344 540.505, 480.075 541.184, 480.488 540.798 C 480.900 540.411, 481.881 540.738, 482.667 541.524 C 483.777 542.634, 483.849 543.460, 482.993 545.226 C 481.936 547.405, 481.955 547.419, 483.445 545.559 C 485.275 543.274, 485.385 542.356, 483.935 541.460 C 483.237 541.029, 483.462 540.146, 484.587 538.904 C 485.828 537.532, 486.652 537.296, 487.563 538.052 C 488.441 538.781, 489.023 538.772, 489.485 538.024 C 489.850 537.433, 489.778 537.015, 489.324 537.094 C 487.309 537.444, 486.847 536.889, 488 535.500 C 488.685 534.675, 488.852 533.993, 488.372 533.985 C 487.893 533.976, 488.175 533.533, 489 533 C 489.825 532.467, 490.007 532.024, 489.405 532.015 C 488.803 532.007, 487.495 532.900, 486.500 534 M 565.564 534.707 C 565.022 536.132, 565.136 536.247, 566.124 535.267 C 566.808 534.588, 567.115 533.781, 566.807 533.474 C 566.499 533.166, 565.940 533.721, 565.564 534.707 M 446 534.378 C 446 534.585, 446.788 535.373, 447.750 536.128 C 449.336 537.371, 449.371 537.336, 448.128 535.750 C 446.821 534.084, 446 533.555, 446 534.378 M 454.278 539.250 C 453.144 540.716, 451.885 544, 452.458 544 C 452.676 544, 453.527 542.650, 454.350 541 C 455.926 537.842, 455.897 537.157, 454.278 539.250 M 450.543 539.931 C 450.226 540.443, 450.350 541.098, 450.817 541.387 C 451.284 541.676, 451.667 541.257, 451.667 540.456 C 451.667 538.770, 451.351 538.623, 450.543 539.931 M 485.543 539.931 C 485.226 540.443, 485.350 541.098, 485.817 541.387 C 486.284 541.676, 486.667 541.257, 486.667 540.456 C 486.667 538.770, 486.351 538.623, 485.543 539.931 M 478.603 542.833 C 478.320 543.292, 478.723 543.667, 479.500 543.667 C 480.277 543.667, 480.680 543.292, 480.397 542.833 C 480.114 542.375, 479.710 542, 479.500 542 C 479.290 542, 478.886 542.375, 478.603 542.833 M 477.564 546.707 C 477.022 548.132, 477.136 548.247, 478.124 547.267 C 478.808 546.588, 479.115 545.781, 478.807 545.474 C 478.499 545.166, 477.940 545.721, 477.564 546.707 M 329.459 548.067 C 329.096 548.653, 329.014 549.348, 329.276 549.610 C 329.538 549.872, 330.019 549.392, 330.345 548.543 C 331.021 546.781, 330.445 546.471, 329.459 548.067 M 333.553 550.722 C 332.992 552.186, 332.757 552.225, 331.990 550.985 C 331.296 549.861, 331.126 550.029, 331.253 551.712 C 331.365 553.197, 331.775 553.601, 332.533 552.973 C 333.233 552.391, 334.160 552.503, 335.026 553.274 C 336.168 554.291, 336.202 554.231, 335.226 552.926 C 334.323 551.720, 334.322 551.078, 335.224 550.176 C 336.024 549.376, 336.051 549, 335.307 549 C 334.706 549, 333.917 549.775, 333.553 550.722 M 546.564 551.707 C 546.022 553.132, 546.136 553.247, 547.124 552.267 C 547.808 551.588, 548.115 550.781, 547.807 550.474 C 547.499 550.166, 546.940 550.721, 546.564 551.707 M 548.415 553.138 C 547.983 553.836, 548.123 554.042, 548.760 553.648 C 549.348 553.285, 550.057 553.553, 550.336 554.244 C 550.698 555.143, 550.865 555.161, 550.921 554.309 C 551.035 552.588, 549.265 551.761, 548.415 553.138 M 547.564 556.293 C 547.940 557.279, 548.499 557.834, 548.807 557.526 C 549.115 557.219, 548.808 556.412, 548.124 555.733 C 547.136 554.753, 547.022 554.868, 547.564 556.293 M 453 562.941 C 453 563.459, 453.445 564.157, 453.989 564.493 C 454.555 564.843, 454.723 564.442, 454.382 563.552 C 453.717 561.820, 453 561.503, 453 562.941 M 275.468 573.101 C 275.101 574.256, 275.184 575.582, 275.651 576.046 C 276.118 576.511, 276.548 575.566, 276.606 573.946 C 276.732 570.469, 276.385 570.211, 275.468 573.101 M 345.236 575.207 C 345.381 575.918, 344.748 576.443, 343.829 576.374 C 342.772 576.295, 342.358 576.770, 342.703 577.667 C 343.158 578.855, 343.542 578.819, 345.061 577.445 C 346.058 576.543, 347.352 576.100, 347.937 576.461 C 348.522 576.822, 349 576.882, 349 576.594 C 349 576.306, 348.094 575.585, 346.986 574.992 C 345.438 574.164, 345.033 574.214, 345.236 575.207 M 449.074 575.411 C 448.273 576.376, 448.235 577.027, 448.951 577.470 C 449.528 577.826, 450.034 577.979, 450.077 577.809 C 450.525 575.996, 450.765 574, 450.534 574 C 450.375 574, 449.718 574.635, 449.074 575.411 M 393.507 575.989 C 393.157 576.555, 393.558 576.723, 394.448 576.382 C 396.180 575.717, 396.497 575, 395.059 575 C 394.541 575, 393.843 575.445, 393.507 575.989 M 442.801 577.845 C 441.201 579.470, 441.205 579.571, 442.854 579.571 C 443.820 579.571, 444.667 578.770, 444.741 577.786 C 444.901 575.664, 444.949 575.662, 442.801 577.845 M 346 579.059 C 346 579.641, 346.450 579.840, 347 579.500 C 347.550 579.160, 348 578.684, 348 578.441 C 348 578.198, 347.550 578, 347 578 C 346.450 578, 346 578.477, 346 579.059 M 348.500 580 C 348.160 580.550, 348.359 581, 348.941 581 C 349.523 581, 350 580.550, 350 580 C 350 579.450, 349.802 579, 349.559 579 C 349.316 579, 348.840 579.450, 348.500 580 M 440.379 582.379 C 440.506 583.239, 440.888 584.221, 441.229 584.563 C 441.571 584.904, 441.747 584.480, 441.621 583.621 C 441.494 582.761, 441.112 581.779, 440.771 581.437 C 440.429 581.096, 440.253 581.520, 440.379 582.379 M 443.613 582.183 C 443.902 582.650, 444.557 582.774, 445.069 582.457 C 446.377 581.649, 446.230 581.333, 444.544 581.333 C 443.743 581.333, 443.324 581.716, 443.613 582.183 M 425 585.902 C 425 586.940, 426.902 588.443, 427.466 587.850 C 427.649 587.658, 427.169 586.920, 426.399 586.211 C 425.630 585.501, 425 585.362, 425 585.902 M 430.333 588.456 C 430.333 589.257, 430.716 589.676, 431.183 589.387 C 431.650 589.098, 431.774 588.443, 431.457 587.931 C 430.649 586.623, 430.333 586.770, 430.333 588.456 M 477.564 589.293 C 477.940 590.279, 478.499 590.834, 478.807 590.526 C 479.115 590.219, 478.808 589.412, 478.124 588.733 C 477.136 587.753, 477.022 587.868, 477.564 589.293 M 432.543 589.931 C 432.226 590.443, 432.350 591.098, 432.817 591.387 C 433.284 591.676, 433.667 591.257, 433.667 590.456 C 433.667 588.770, 433.351 588.623, 432.543 589.931 M 482.993 590.774 C 483.849 592.540, 483.777 593.366, 482.667 594.476 C 481.881 595.262, 480.900 595.589, 480.488 595.202 C 480.075 594.816, 480.344 595.495, 481.084 596.710 C 481.838 597.947, 482.706 598.476, 483.054 597.913 C 483.434 597.298, 484.176 597.508, 484.961 598.453 C 485.667 599.304, 485.881 600, 485.435 600 C 484.990 600, 485.919 601.350, 487.500 603 C 489.081 604.650, 490.852 605.964, 491.437 605.921 C 492.022 605.878, 491.935 605.614, 491.244 605.336 C 490.553 605.057, 490.285 604.348, 490.648 603.760 C 491.013 603.170, 490.843 602.979, 490.268 603.334 C 489.695 603.688, 488.811 603.420, 488.302 602.739 C 486.989 600.980, 487.352 598.449, 488.870 598.775 C 489.573 598.926, 489.850 598.567, 489.485 597.976 C 489.023 597.228, 488.441 597.219, 487.563 597.948 C 486.652 598.704, 485.828 598.468, 484.587 597.096 C 483.462 595.854, 483.237 594.971, 483.935 594.540 C 485.385 593.644, 485.275 592.726, 483.445 590.441 C 481.955 588.581, 481.936 588.595, 482.993 590.774 M 436.352 591.760 C 436.715 592.348, 436.447 593.057, 435.756 593.336 C 434.857 593.698, 434.839 593.865, 435.691 593.921 C 437.412 594.035, 438.239 592.265, 436.862 591.415 C 436.164 590.983, 435.958 591.123, 436.352 591.760 M 478.613 593.183 C 478.902 593.650, 479.557 593.774, 480.069 593.457 C 481.377 592.649, 481.230 592.333, 479.544 592.333 C 478.743 592.333, 478.324 592.716, 478.613 593.183 M 485.543 594.931 C 485.226 595.443, 485.350 596.098, 485.817 596.387 C 486.284 596.676, 486.667 596.257, 486.667 595.456 C 486.667 593.770, 486.351 593.623, 485.543 594.931 M 434.600 595.838 C 434.282 596.353, 434.692 597.329, 435.511 598.009 C 436.330 598.689, 437 598.910, 437 598.500 C 437 598.090, 437.788 598.373, 438.750 599.128 C 440.316 600.355, 440.363 600.325, 439.201 598.839 C 438.389 597.800, 438.273 596.949, 438.890 596.568 C 439.433 596.232, 440.341 596.755, 440.908 597.729 C 441.475 598.703, 441.953 598.993, 441.970 598.372 C 442.019 596.557, 439.303 594.700, 438.500 596 C 438.008 596.796, 437.459 596.796, 436.500 596 C 435.709 595.343, 434.946 595.278, 434.600 595.838 M 491 601.590 C 491 601.681, 491.761 602.373, 492.692 603.128 C 493.623 603.882, 494.070 603.976, 493.686 603.335 C 493.302 602.695, 493.553 601.953, 494.244 601.687 C 494.935 601.421, 494.488 601.254, 493.250 601.315 C 492.012 601.376, 491 601.500, 491 601.590 M 496.349 604.185 C 496.645 605.112, 496.350 606.089, 495.694 606.356 C 494.773 606.731, 494.773 606.860, 495.691 606.921 C 497.455 607.038, 498.009 605.604, 496.840 603.952 C 495.990 602.752, 495.905 602.792, 496.349 604.185 M 442.418 605.591 C 441.363 606.448, 441.082 606.851, 441.794 606.488 C 442.505 606.125, 443.703 606.338, 444.455 606.962 C 445.267 607.637, 446.056 607.718, 446.400 607.162 C 446.718 606.647, 446.384 605.733, 445.657 605.130 C 444.679 604.319, 443.838 604.438, 442.418 605.591 M 377 609 C 377 609.550, 377.477 610, 378.059 610 C 378.641 610, 378.840 609.550, 378.500 609 C 378.160 608.450, 377.684 608, 377.441 608 C 377.198 608, 377 608.450, 377 609 M 374.079 610.583 C 374.127 611.748, 374.364 611.985, 374.683 611.188 C 374.972 610.466, 374.936 609.603, 374.604 609.271 C 374.272 608.939, 374.036 609.529, 374.079 610.583 M 510.554 609.902 C 508.650 610.647, 508.652 610.676, 510.637 611.195 C 511.943 611.536, 512.667 611.240, 512.667 610.363 C 512.667 609.613, 512.629 609.032, 512.583 609.070 C 512.538 609.109, 511.624 609.483, 510.554 609.902 M 277.813 610.683 C 278.534 610.972, 279.397 610.936, 279.729 610.604 C 280.061 610.272, 279.471 610.036, 278.417 610.079 C 277.252 610.127, 277.015 610.364, 277.813 610.683 M 446.543 611.931 C 446.226 612.443, 446.350 613.098, 446.817 613.387 C 447.284 613.676, 447.667 613.257, 447.667 612.456 C 447.667 610.770, 447.351 610.623, 446.543 611.931 M 554 612.059 C 554 612.641, 554.450 612.840, 555 612.500 C 555.550 612.160, 556 611.684, 556 611.441 C 556 611.198, 555.550 611, 555 611 C 554.450 611, 554 611.477, 554 612.059 M 420.813 613.683 C 421.534 613.972, 422.397 613.936, 422.729 613.604 C 423.061 613.272, 422.471 613.036, 421.417 613.079 C 420.252 613.127, 420.015 613.364, 420.813 613.683" stroke="none" fill="#FFFFFF" fill-rule="evenodd"/>
</svg>