<svg xmlns="http://www.w3.org/2000/svg" width="800" height="800" viewBox="0 0 800 800" version="1.1">
	<path d="M 388.468 346.345 C 380.390 350.219, 345.508 368.379, 295 395.008 C 275.475 405.302, 254.438 416.289, 248.250 419.424 C 237.763 424.738, 237 425.324, 237 428.062 C 237 429.678, 237.362 431, 237.805 431 C 238.248 431, 267.161 420.835, 302.055 408.410 C 336.950 395.986, 371.711 383.611, 379.303 380.910 C 386.895 378.210, 394.343 376, 395.855 376 C 397.367 376, 428.281 386.605, 464.552 399.568 C 525.810 421.459, 558.655 433, 559.700 433 C 559.938 433, 559.990 431.821, 559.816 430.380 C 559.532 428.029, 555.705 425.767, 522.500 408.332 C 462.443 376.796, 399.653 344.304, 397.468 343.630 C 396.181 343.233, 392.880 344.229, 388.468 346.345 M 277.059 446.501 C 267.926 448.559, 260.704 452.394, 256.090 457.636 C 250.370 464.133, 248.686 470.030, 249.174 481.847 C 249.521 490.231, 249.963 492.213, 252.537 496.921 C 255.773 502.841, 262.213 508.278, 268.186 510.133 C 271.050 511.023, 276.181 510.913, 291.186 509.642 C 301.809 508.742, 316.125 507.724, 323 507.379 L 335.500 506.751 339.188 503.233 C 344.312 498.345, 347.220 491.129, 347.778 481.915 C 348.845 464.306, 341.568 453.784, 324.097 447.673 C 316.563 445.037, 286.843 444.298, 277.059 446.501 M 479.271 447.102 C 477.314 448.355, 469.464 458.489, 459.337 472.835 C 450.150 485.851, 441.366 498.140, 439.816 500.144 C 438.267 502.148, 437 504.061, 437 504.394 C 437 504.727, 442.545 505, 449.321 505 L 461.642 505 474.404 486.980 L 487.165 468.960 496.333 482.230 L 505.500 495.500 491.317 495.776 L 477.134 496.053 474.067 500.223 C 472.380 502.517, 471 504.755, 471 505.197 C 471 505.639, 474.082 506, 477.848 506 C 484.135 506, 518.919 508.177, 533.750 509.499 C 537.188 509.805, 540 509.683, 540 509.227 C 540 508.772, 530.849 495.147, 519.664 478.950 C 507.043 460.674, 498.071 448.646, 496.016 447.250 C 491.619 444.262, 483.812 444.193, 479.271 447.102 M 166 447.649 C 156.196 451.034, 151.800 457.015, 151.800 466.968 C 151.800 475.976, 154.664 480.170, 163.537 484.151 C 168.140 486.216, 170.311 486.408, 193.500 486.799 C 208.208 487.047, 219.015 487.638, 219.750 488.233 C 221.653 489.773, 221.243 493.799, 219.066 494.965 C 217.874 495.603, 206.645 496.017, 189.816 496.044 L 162.500 496.089 156.701 503.591 C 153.511 507.717, 150.639 511.777, 150.318 512.614 C 149.801 513.962, 153.918 514.090, 186.617 513.746 C 226.496 513.327, 227.941 513.146, 234.482 507.754 C 239.657 503.489, 241.363 499.585, 241.389 491.951 C 241.418 483.575, 238.873 479.102, 232.212 475.821 C 227.744 473.620, 226.148 473.474, 201.400 473 C 174.260 472.480, 172 472.102, 172 468.078 C 172 464.231, 173.597 464, 200.127 464 L 225.853 464 232.427 455.484 C 236.042 450.800, 239 446.750, 239 446.484 C 239 446.218, 223.588 446.021, 204.750 446.048 C 176.468 446.087, 169.716 446.366, 166 447.649 M 358.235 475.652 L 358.500 505.303 392 505.088 L 425.500 504.873 427.763 502.186 C 433.342 495.566, 434.868 496, 406.035 496 L 380 496 380 471 L 380 446 368.985 446 L 357.970 446 358.235 475.652 M 557.607 454.327 C 553.973 458.980, 551 463.060, 551 463.394 C 551 463.727, 565.564 464, 583.365 464 C 614.594 464, 615.823 464.073, 618.365 466.073 C 623.405 470.037, 620.834 476.983, 613.806 478.389 C 612.125 478.725, 597.306 479, 580.875 479 L 551 479 551 494.828 L 551 510.656 561.081 511.580 C 566.625 512.089, 571.350 512.316, 571.581 512.086 C 571.811 511.855, 572 508.142, 572 503.833 L 572 496 588.250 496.057 L 604.500 496.115 611.831 505.057 L 619.162 514 633.255 514 L 647.349 514 644.954 511.250 C 643.638 509.738, 638.779 504.610, 634.157 499.857 L 625.754 491.213 629.012 490.497 C 633.206 489.576, 640.377 482.418, 641.984 477.549 C 642.668 475.476, 643.034 471.140, 642.798 467.889 C 642.195 459.541, 638.519 454.574, 629.562 450 L 622.709 446.500 593.461 446.183 L 564.213 445.866 557.607 454.327 M 287.500 462.994 C 274.250 464.524, 270.762 467.513, 270.179 477.839 C 269.641 487.357, 271.504 491.423, 277.716 494.291 C 282.020 496.278, 284.107 496.500, 298.500 496.500 C 312.522 496.500, 314.987 496.253, 318.435 494.500 C 325.451 490.935, 327.974 484.983, 326.536 475.393 C 325.677 469.665, 322.009 465.596, 316.408 464.160 C 310.639 462.681, 295.503 462.070, 287.500 462.994" stroke="none" fill="#FFFFFF" fill-rule="evenodd"/>
</svg>